<?xml version="1.0" encoding="UTF-8"?>
<svg version="1.1" xmlns="http://www.w3.org/2000/svg" width="35" height="35">
<path d="M0 0 C11.55 0 23.1 0 35 0 C35 11.55 35 23.1 35 35 C23.45 35 11.9 35 0 35 C0 23.45 0 11.9 0 0 Z " fill="#10202F" transform="translate(0,0)"/>
<path d="M0 0 C3.82148915 0.81265411 6.45754039 2.70754039 9.22265625 5.47265625 C9.29445589 6.99193663 9.30657632 8.51433107 9.28515625 10.03515625 C9.27613281 10.86144531 9.26710938 11.68773437 9.2578125 12.5390625 C9.24621094 13.17714844 9.23460938 13.81523437 9.22265625 14.47265625 C8.56265625 14.47265625 7.90265625 14.47265625 7.22265625 14.47265625 C7.55265625 15.07078125 7.88265625 15.66890625 8.22265625 16.28515625 C9.22265625 18.47265625 9.22265625 18.47265625 9.22265625 21.47265625 C7.57265625 20.81265625 5.92265625 20.15265625 4.22265625 19.47265625 C4.22265625 20.13265625 4.22265625 20.79265625 4.22265625 21.47265625 C-3.73031405 22.09641863 -3.73031405 22.09641863 -7.71484375 19.72265625 C-10.76066752 16.39993941 -11.6308379 14.60284421 -12.21484375 10.09765625 C-11.30091337 2.52509025 -7.26331442 -0.47290361 0 0 Z " fill="#102433" transform="translate(22.77734375,5.52734375)"/>
<path d="M0 0 C3.82148915 0.81265411 6.45754039 2.70754039 9.22265625 5.47265625 C9.29445589 6.99193663 9.30657632 8.51433107 9.28515625 10.03515625 C9.27613281 10.86144531 9.26710938 11.68773437 9.2578125 12.5390625 C9.24621094 13.17714844 9.23460938 13.81523437 9.22265625 14.47265625 C8.23265625 14.47265625 7.24265625 14.47265625 6.22265625 14.47265625 C6.11308594 13.84617187 6.00351562 13.2196875 5.890625 12.57421875 C5.73207031 11.75695313 5.57351562 10.9396875 5.41015625 10.09765625 C5.25933594 9.28554687 5.10851562 8.4734375 4.953125 7.63671875 C4.34720683 5.11444984 4.34720683 5.11444984 1.22265625 3.47265625 C-1.83338213 3.15431892 -3.91069594 3.01044408 -6.65234375 4.47265625 C-8.46425399 7.69383 -8.31109114 10.87174075 -7.77734375 14.47265625 C-6.86067708 16.55598958 -6.86067708 16.55598958 -4.77734375 17.47265625 C-1.16711276 18.20307478 -1.16711276 18.20307478 2.22265625 18.47265625 C2.22265625 19.13265625 2.22265625 19.79265625 2.22265625 20.47265625 C-0.83033134 20.76621275 -3.73407641 20.9081583 -6.77734375 20.47265625 C-10.08086674 17.33430941 -11.6325013 14.72795745 -12.15234375 10.22265625 C-11.38746463 2.573865 -7.31394054 -0.4761998 0 0 Z " fill="#0397BF" transform="translate(22.77734375,5.52734375)"/>
<path d="M0 0 C0.99 0 1.98 0 3 0 C3 6.27 3 12.54 3 19 C2.01 19 1.02 19 0 19 C0 12.73 0 6.46 0 0 Z " fill="#0490B7" transform="translate(4,7)"/>
<path d="M0 0 C0.99 0.99 1.98 1.98 3 3 C3.33 3 3.66 3 4 3 C4 5.97 4 8.94 4 12 C3.34 12 2.68 12 2 12 C1.67 14.31 1.34 16.62 1 19 C0.67 19 0.34 19 0 19 C0 12.73 0 6.46 0 0 Z " fill="#102938" transform="translate(7,7)"/>
<path d="M0 0 C3.78520613 0.54074373 5.59177555 2.07572746 8 5 C8 5.99 8 6.98 8 8 C4.63820226 6.55922954 2.40843732 4.75249979 0 2 C0 1.34 0 0.68 0 0 Z " fill="#0393BB" transform="translate(24,19)"/>
<path d="M0 0 C3.875 1.75 3.875 1.75 5 4 C4.67 4.66 4.34 5.32 4 6 C1.03 6 -1.94 6 -5 6 C-5 5.67 -5 5.34 -5 5 C-2.69 5 -0.38 5 2 5 C2 4.34 2 3.68 2 3 C-0.31 3 -2.62 3 -5 3 C-5 2.67 -5 2.34 -5 2 C-3.35 2 -1.7 2 0 2 C0 1.34 0 0.68 0 0 Z " fill="#0C4055" transform="translate(23,21)"/>
<path d="M0 0 C0.66 0.33 1.32 0.66 2 1 C0.6875 3.5 0.6875 3.5 -1 6 C-1.99 6 -2.98 6 -4 6 C-2.84826645 3.53199953 -1.95216435 1.95216435 0 0 Z " fill="#048AB0" transform="translate(16,6)"/>
</svg>
